<svg width="48" height="48" viewBox="0 0 48 48" fill="none" xmlns="http://www.w3.org/2000/svg">
<path fill-rule="evenodd" clip-rule="evenodd" d="M24 3C12.4031 3 3 12.6375 3 24.5344C3 34.05 9.01875 42.1125 17.3625 44.9625C18.4125 45.1594 18.7969 44.4937 18.7969 43.9219C18.7969 43.4062 18.7781 42.0562 18.7687 40.2562C12.9281 41.5594 11.6906 37.3687 11.6906 37.3687C10.7344 34.8844 9.35625 34.2187 9.35625 34.2187C7.45313 32.8781 9.49688 32.9062 9.49688 32.9062C11.6063 33.0562 12.7125 35.1281 12.7125 35.1281C14.5875 38.4187 17.625 37.4719 18.825 36.9187C19.0125 35.5312 19.5562 34.575 20.1562 34.0406C15.4969 33.4969 10.5938 31.65 10.5938 23.4C10.5938 21.0469 11.4094 19.125 12.75 17.625C12.5344 17.0812 11.8125 14.8875 12.9562 11.925C12.9562 11.925 14.7188 11.3437 18.7313 14.1281C20.4094 13.65 22.2 13.4156 23.9906 13.4062C25.7719 13.4156 27.5719 13.65 29.25 14.1281C33.2625 11.3437 35.0156 11.925 35.0156 11.925C36.1594 14.8875 35.4375 17.0812 35.2219 17.625C36.5625 19.1344 37.3781 21.0562 37.3781 23.4C37.3781 31.6687 32.4656 33.4875 27.7875 34.0219C28.5375 34.6875 29.2125 36 29.2125 38.0062C29.2125 40.8844 29.1844 43.2094 29.1844 43.9125C29.1844 44.4844 29.5594 45.1594 30.6281 44.9437C38.9906 42.1031 45 34.0406 45 24.5344C45 12.6375 35.5969 3 24 3Z" fill="black"/>
</svg>
