<svg width="203" height="66" viewBox="0 0 203 66" fill="none" xmlns="http://www.w3.org/2000/svg">
<path d="M47.1076 39.2347C45.8726 35.3081 41.6927 33.1295 37.7661 34.3645C33.8395 35.5995 31.6609 39.7794 32.8958 43.706C32.9022 43.725 32.9085 43.744 32.9148 43.7566H29.3809C28.7096 43.7566 28.1079 43.3196 27.9179 42.6737L24.992 33.0662L25.4923 32.8002C32.4272 29.8869 39.8497 35.0865 45.0176 30.0959C45.0303 30.0833 45.0429 30.0706 45.0493 30.0643C45.6889 29.4816 46.3286 28.8926 48.2222 30.0706C50.2552 31.3436 54.7454 34.6748 56.7784 40.362C56.7784 40.362 58.0133 39.9251 57.6713 38.4114C57.3293 36.8978 54.8277 32.5405 49.7105 28.6773C48.7732 27.968 47.9309 27.379 47.2279 26.904C48.2475 22.5341 42.9403 17.2585 37.7597 19.7411C34.0422 16.2452 29.8939 14.8139 26.0813 14.8709C15.9798 15.0102 8.18364 25.536 16.5688 35.5805C16.5751 35.5868 16.5751 35.5868 16.5878 35.5995C16.7145 35.7515 16.8475 35.9035 16.9805 36.0618C17.5251 36.7141 17.8861 37.2904 18.1964 38.3101L20.6917 46.5052H19.8114C18.9944 46.5052 18.3358 47.1639 18.3358 47.9809H21.6924L27.329 50.6472C27.6773 49.9062 27.3606 49.0322 26.626 48.6839L25.144 47.9872H29.3936C29.3936 47.1702 28.7349 46.5116 27.9179 46.5116H24.0674C23.396 46.5116 22.7943 46.0746 22.6043 45.4286L20.6221 38.9244C20.1281 37.2144 21.2617 36.0998 22.3257 35.9668C23.2947 35.8465 23.7887 36.4735 24.2447 37.9934L26.0053 43.763H25.125C24.308 43.763 23.6494 44.4216 23.6494 45.2386H27.006L32.6425 47.9049C32.9908 47.1639 32.6742 46.2899 31.9395 45.9416L30.4576 45.2449H33.5798C35.2961 48.1772 38.8681 49.6465 42.2437 48.5825C46.1639 47.3412 48.3425 43.1613 47.1076 39.2347ZM41.4393 22.4834C42.6806 22.4834 43.675 23.4841 43.675 24.719C43.675 25.1117 43.5673 25.4853 43.39 25.8083C43.371 25.0357 42.7376 24.4087 41.9587 24.4087C41.167 24.4087 40.5274 25.0484 40.5274 25.84C40.5274 26.2707 40.7174 26.657 41.015 26.9166C39.9764 26.7203 39.1974 25.8147 39.1974 24.719C39.1974 23.4904 40.198 22.4834 41.4393 22.4834Z" fill="black"/>
<path d="M91.0853 19.8678H82.7509L71.9147 32.1162V19.8678H64.7139V48.1772H71.9147V41.217L75.6767 37.0498L83.1562 48.1772H91.7693L80.5659 31.5906L91.0853 19.8678Z" fill="black"/>
<path d="M102.124 19.8678H94.9233V48.1772H102.124V19.8678Z" fill="black"/>
<path d="M136.134 40.6914L130.592 19.8678H123.556L118.141 40.6914L112.599 19.8678H104.917L114.176 48.1772H121.618L126.957 28.6013L132.213 48.1772H139.61L148.952 19.8678H141.593L136.134 40.6914Z" fill="black"/>
<path d="M158.705 19.8678H151.504V48.1772H158.705V19.8678Z" fill="black"/>
<path d="M180.783 33.3702L190.124 19.8678H181.669L176.21 28.1136L170.751 19.8678H162.378L171.847 33.6932L161.732 48.1772H170.105L176.21 39.1587L182.322 48.1772H190.935L180.783 33.3702Z" fill="black"/>
</svg>
