<svg width="203" height="66" viewBox="0 0 203 66" fill="none" xmlns="http://www.w3.org/2000/svg">
<mask id="mask0_150_99" style="mask-type:luminance" maskUnits="userSpaceOnUse" x="12" y="20" width="166" height="26">
<path d="M178 20.5H12V45.5H178V20.5Z" fill="white"/>
</mask>
<g mask="url(#mask0_150_99)">
<path d="M125.11 28.3505C125.11 29.0215 124.843 29.665 124.369 30.1395C123.894 30.6139 123.251 30.8805 122.58 30.8805C121.169 30.8805 120.05 30.7959 119.062 30.02C120.821 29.2487 121.183 25.8206 122.58 25.8206C123.251 25.8206 123.894 26.0871 124.369 26.5616C124.843 27.036 125.11 27.6795 125.11 28.3505Z" fill="url(#paint0_linear_150_99)"/>
<path fill-rule="evenodd" clip-rule="evenodd" d="M102.664 22.9284C100.119 21.3062 97.1559 20.4613 94.138 20.4972H93.9123C90.8055 20.4972 88.3727 21.281 86.614 22.8485C84.8552 24.416 83.9773 26.6308 83.9805 29.4931V44.5413H89.2991V31.0168C89.2991 27.1701 91.116 25.2452 94.7495 25.242C95.1759 25.2409 95.6018 25.2707 96.0239 25.3314C97.4967 25.6272 98.8945 26.2175 100.134 27.0666L100.275 26.7281C100.879 25.3503 101.684 24.0697 102.664 22.9284Z" fill="#231F20"/>
<path fill-rule="evenodd" clip-rule="evenodd" d="M110.226 33.7583C110.89 34.003 111.569 34.2057 112.258 34.365C114.219 34.7777 116.235 34.8683 118.225 34.633C121.475 34.0875 123.906 32.2112 124.658 30.7298C125.116 29.8514 125.243 28.8538 125.09 27.875L122.506 28.0918L119.867 29.0887C119.523 30.316 117.515 30.4994 115.061 30.2643C114.426 30.2077 113.798 30.1024 113.18 29.9493C112.569 29.7839 111.97 29.5764 111.388 29.3285C111.015 29.7672 110.721 30.2667 110.518 30.8051C110.277 31.4666 110.156 32.1656 110.16 32.8695C110.158 33.1671 110.18 33.4644 110.226 33.7583Z" fill="url(#paint1_linear_150_99)"/>
<path d="M177.815 44.4521C177.51 44.5086 177.011 44.5791 176.343 44.659C175.676 44.739 174.895 44.8189 173.992 44.8941C173.089 44.9694 172.078 45.0447 170.959 45.1058C169.84 45.1669 168.678 45.1951 167.46 45.1951C165.46 45.242 163.462 45.0302 161.516 44.565C160.206 44.2519 158.971 43.683 157.881 42.8909C157.056 42.2733 156.425 41.4308 156.066 40.4644C155.749 39.5576 155.59 38.6033 155.596 37.6428C155.572 36.4985 155.768 35.3602 156.174 34.2899C156.57 33.3165 157.234 32.4752 158.088 31.8634C159.134 31.1402 160.316 30.6392 161.563 30.3915C163.281 30.044 165.031 29.8863 166.783 29.9212C167.959 29.9212 169.078 29.9589 170.136 30.0435C171.194 30.1281 171.984 30.194 172.511 30.2552C172.543 29.3251 172.361 28.4 171.98 27.5512C171.651 26.8668 171.142 26.2847 170.507 25.8676C169.824 25.4424 169.063 25.1563 168.269 25.0259C167.314 24.8645 166.346 24.7874 165.377 24.7954C163.931 24.7464 162.487 24.9517 161.112 25.4021C160.36 25.6415 159.648 25.9885 158.996 26.432C158.711 26.1629 158.452 25.8668 158.225 25.5479C157.898 25.0855 157.733 24.5287 157.754 23.9631C157.759 23.5132 157.877 23.0716 158.098 22.6793C158.396 22.1955 158.827 21.8071 159.339 21.5601C160.078 21.1815 160.871 20.9198 161.69 20.7842C162.933 20.579 164.192 20.4861 165.452 20.5067C167.137 20.493 168.817 20.6728 170.461 21.0428C171.856 21.3491 173.178 21.9275 174.349 22.7451C175.447 23.5361 176.322 24.5971 176.889 25.8253C177.529 27.2786 177.839 28.8557 177.796 30.4432V44.4521H177.815ZM172.553 34.1065C172.243 34.0501 171.66 33.9513 170.804 33.8291C169.527 33.68 168.242 33.6172 166.957 33.641C164.85 33.641 163.303 33.9607 162.349 34.5815C161.394 35.2022 160.905 36.218 160.905 37.5864C160.897 38.1143 161 38.638 161.206 39.1242C161.43 39.616 161.797 40.0289 162.259 40.3091C162.881 40.6845 163.569 40.9383 164.286 41.0569C165.338 41.2425 166.406 41.3275 167.474 41.3108C168.612 41.3278 169.749 41.2728 170.879 41.1462C171.721 41.0381 172.29 40.9487 172.558 40.8876V34.1065H172.553Z" fill="#231F20"/>
<path d="M128.494 30.4667C128.466 29.0311 128.76 27.6075 129.355 26.3003C129.913 25.0987 130.727 24.0332 131.739 23.1778C132.794 22.2945 134.013 21.6281 135.327 21.2168C136.795 20.7519 138.329 20.5234 139.869 20.5396C141.416 20.5252 142.955 20.7536 144.431 21.2168C145.752 21.6258 146.98 22.2923 148.042 23.1778C149.049 24.0308 149.852 25.0975 150.394 26.3003C150.973 27.6115 151.261 29.0332 151.235 30.4667V44.5744H145.926V31.8022C145.926 29.6955 145.409 28.0778 144.388 26.9821C143.368 25.8864 141.859 25.3221 139.869 25.3221C137.88 25.3221 136.333 25.8817 135.327 26.9821C134.32 28.0825 133.808 29.6955 133.808 31.8022V44.5744H128.494V30.4667Z" fill="#231F20"/>
<path d="M12.4713 29.5449C12.4393 28.1976 12.7109 26.8604 13.266 25.6323C13.771 24.5418 14.5133 23.5778 15.4386 22.8108C16.3985 22.0432 17.4968 21.4669 18.6739 21.1132C19.9874 20.713 21.3545 20.5164 22.7276 20.5301C24.5102 20.4974 26.2776 20.8637 27.9004 21.6023C29.3901 22.2896 30.6516 23.3895 31.5354 24.7718C32.4074 23.397 33.6515 22.2979 35.1234 21.6023C36.7153 20.866 38.4532 20.4994 40.2069 20.5301C41.5641 20.5211 42.9152 20.7095 44.2181 21.0897C45.3901 21.4291 46.4822 21.9999 47.43 22.7685C48.3415 23.5298 49.0752 24.4817 49.5792 25.5571C50.1279 26.7872 50.3992 28.123 50.3739 29.4696V44.5789H45.0553V31.2942C45.0553 29.1499 44.5756 27.6184 43.6163 26.6998C42.545 25.7427 41.1383 25.249 39.7038 25.3267C38.9705 25.3072 38.2406 25.4331 37.5562 25.697C36.8718 25.9609 36.2464 26.3576 35.7161 26.8644C34.6439 27.8927 34.1093 29.5543 34.1124 31.8491V44.5789H28.7938V31.8491C28.7938 29.5543 28.2625 27.8943 27.1856 26.8644C26.657 26.3579 26.0331 25.9613 25.3502 25.6973C24.6674 25.4334 23.9391 25.3074 23.2072 25.3267C21.7686 25.2659 20.3634 25.7725 19.2946 26.7374C18.2976 27.6779 17.8008 29.2173 17.8039 31.3554V44.5931H12.4853V29.5449H12.4713Z" fill="#231F20"/>
<path d="M55.7716 23.6619C55.7385 23.3116 55.789 22.9584 55.919 22.6314C56.0489 22.3044 56.2547 22.013 56.5192 21.7809C57.1325 21.355 57.8712 21.148 58.6165 21.1931C59.1365 21.1905 59.6543 21.2618 60.1542 21.4047C60.6245 21.5458 60.9349 21.6445 61.0948 21.7057V33.9652C61.0948 36.0751 61.5933 37.6849 62.5903 38.7947C63.5872 39.9045 65.1092 40.4547 67.1564 40.4453C69.2067 40.4453 70.7271 39.8951 71.7177 38.7947C72.7194 37.6896 73.2132 36.0813 73.2132 33.9652V23.6619C73.1804 23.3121 73.2306 22.9594 73.3597 22.6325C73.4888 22.3057 73.6932 22.0139 73.9563 21.7809C74.5544 21.3605 75.2765 21.1535 76.0065 21.1931C76.5421 21.1881 77.0758 21.2593 77.5913 21.4047C78.0616 21.5458 78.3626 21.6445 78.5318 21.7057V35.1267C78.5587 36.5899 78.2799 38.0426 77.7135 39.3919C77.1916 40.6201 76.3954 41.7124 75.3859 42.585C74.3289 43.4832 73.1 44.1568 71.7742 44.5647C70.2799 45.0309 68.7217 45.2595 67.1564 45.2419C65.5943 45.2588 64.039 45.0302 62.5478 44.5647C61.2273 44.1609 60.0055 43.4867 58.9598 42.585C57.9507 41.7065 57.1479 40.6163 56.6085 39.3919C56.0328 38.0447 55.746 36.5917 55.7667 35.1267V23.6619H55.7716Z" fill="#231F20"/>
<path d="M107.542 35.1034C107.31 34.2654 107.228 33.3931 107.298 32.5264L102.492 29.1453C102.13 30.3672 101.939 31.6331 101.923 32.9073C101.898 35.0168 102.415 37.0974 103.425 38.9499C104.434 40.8024 105.902 42.365 107.688 43.488L111.041 39.9941C110.157 39.4583 109.391 38.7485 108.79 37.9078C108.188 37.0671 107.764 36.113 107.542 35.1034Z" fill="url(#paint2_linear_150_99)"/>
<path d="M121.402 38.9688C120.788 39.4198 120.133 39.812 119.445 40.1397C117.629 41.0004 115.588 41.2702 113.61 40.9109C112.7 40.7641 111.827 40.4449 111.037 39.9704L108.31 40.9109L107.68 43.4832C109.593 44.6836 111.807 45.3193 114.066 45.3172C120.062 45.3172 123.16 41.7668 123.16 41.7668L122.902 39.9845L121.402 38.9688Z" fill="url(#paint3_linear_150_99)"/>
<path d="M126.13 36.5894C126.52 35.0846 125.542 34.5673 124.837 35.5595C123.497 37.3742 121.78 38.8774 119.805 39.9658L121.399 43.1683C124.296 41.4048 125.65 38.4422 126.13 36.5894Z" fill="url(#paint4_linear_150_99)"/>
<path d="M114.323 25.2468C118.085 25.2468 120.187 27.8661 119.834 29.0888L125.092 27.8802C124.922 26.8544 124.504 25.8857 123.874 25.0587C121.955 22.397 118.4 20.5771 113.778 20.5771C112.119 20.6239 110.486 21.0021 108.976 21.6893C107.466 22.3766 106.108 23.3591 104.984 24.579C103.82 25.8881 102.969 27.4448 102.496 29.1311C104.259 31.252 107.297 32.5122 107.297 32.5122C107.357 30.8258 107.928 29.1974 108.934 27.8426C109.556 27.0073 110.371 26.335 111.31 25.883C112.248 25.4309 113.282 25.2127 114.323 25.2468Z" fill="url(#paint5_linear_150_99)"/>
<path d="M109.475 27.2124C110.104 26.5686 110.86 26.0617 111.694 25.7234C112.528 25.3852 113.424 25.2229 114.323 25.2468C118.085 25.2468 120.188 27.8661 119.835 29.0887C119.745 29.3472 119.589 29.5778 119.383 29.7576C119.177 29.9374 118.928 30.0602 118.659 30.1139C119.342 29.9123 119.976 29.5719 120.522 29.1139C121.067 28.6559 121.512 28.0902 121.829 27.4522C122.891 25.0398 121.255 22.1478 117.126 20.9345C116.029 20.701 114.91 20.5859 113.788 20.5912C110.814 20.6695 107.968 21.8145 105.77 23.8172L109.475 27.2124Z" fill="url(#paint6_linear_150_99)"/>
</g>
<defs>
<linearGradient id="paint0_linear_150_99" x1="126.248" y1="29.5826" x2="119.062" y2="27.49" gradientUnits="userSpaceOnUse">
<stop stop-color="#FF6E00"/>
<stop offset="1" stop-color="#F8432E"/>
</linearGradient>
<linearGradient id="paint1_linear_150_99" x1="130.805" y1="14.5766" x2="107.301" y2="43.1211" gradientUnits="userSpaceOnUse">
<stop stop-color="#FFDA00"/>
<stop offset="0.83" stop-color="#FF9B00"/>
<stop offset="1" stop-color="#FF5D69"/>
</linearGradient>
<linearGradient id="paint2_linear_150_99" x1="126.281" y1="10.8523" x2="102.778" y2="39.4011" gradientUnits="userSpaceOnUse">
<stop stop-color="#FFDA00"/>
<stop offset="0.83" stop-color="#FF9B00"/>
<stop offset="1" stop-color="#FF5D69"/>
</linearGradient>
<linearGradient id="paint3_linear_150_99" x1="134.954" y1="17.9906" x2="111.456" y2="46.5398" gradientUnits="userSpaceOnUse">
<stop stop-color="#FFDA00"/>
<stop offset="0.83" stop-color="#FF9B00"/>
<stop offset="1" stop-color="#FF5D69"/>
</linearGradient>
<linearGradient id="paint4_linear_150_99" x1="138.178" y1="20.6477" x2="114.674" y2="49.1925" gradientUnits="userSpaceOnUse">
<stop stop-color="#FFDA00"/>
<stop offset="0.83" stop-color="#FF9B00"/>
<stop offset="1" stop-color="#FF5D69"/>
</linearGradient>
<linearGradient id="paint5_linear_150_99" x1="127.123" y1="11.5435" x2="103.62" y2="40.0926" gradientUnits="userSpaceOnUse">
<stop stop-color="#FFDA00"/>
<stop offset="0.83" stop-color="#FF9B00"/>
<stop offset="1" stop-color="#FF5D69"/>
</linearGradient>
<linearGradient id="paint6_linear_150_99" x1="108.215" y1="22.8203" x2="121.626" y2="26.5682" gradientUnits="userSpaceOnUse">
<stop stop-color="#FFDA00" stop-opacity="0"/>
<stop offset="0.83" stop-color="#FF9B00"/>
<stop offset="1" stop-color="#FF5D69"/>
</linearGradient>
</defs>
</svg>
