<svg width="24" height="22" viewBox="0 0 24 22" fill="none" xmlns="http://www.w3.org/2000/svg">
<g clip-path="url(#clip0_142_34)">
<path d="M13.204 0.773438C12.9832 0.300781 12.5165 0 12.004 0C11.4915 0 11.029 0.300781 10.804 0.773438L8.12488 6.4582L2.14154 7.36914C1.64154 7.44648 1.22488 7.80742 1.07071 8.30156C0.916545 8.7957 1.04154 9.34141 1.39988 9.70664L5.74154 14.1367L4.71654 20.3973C4.63321 20.9129 4.84154 21.4371 5.25404 21.7422C5.66654 22.0473 6.21238 22.0859 6.66238 21.841L12.0082 18.8977L17.354 21.841C17.804 22.0859 18.3499 22.0516 18.7624 21.7422C19.1749 21.4328 19.3832 20.9129 19.2999 20.3973L18.2707 14.1367L22.6124 9.70664C22.9707 9.34141 23.0999 8.7957 22.9415 8.30156C22.7832 7.80742 22.3707 7.44648 21.8707 7.36914L15.8832 6.4582L13.204 0.773438Z" fill="#FF8A00"/>
</g>
<defs>
<clipPath id="clip0_142_34">
<rect width="24" height="22" fill="white"/>
</clipPath>
</defs>
</svg>
