<svg width="57" height="57" viewBox="0 0 57 57" fill="none" xmlns="http://www.w3.org/2000/svg">
<path d="M42.3998 17.7C37.0998 17.7 33.0998 21.2 31.4998 26.7C28.9998 22.8 26.9998 18.4 25.8998 14.6H20.2998V29.3C20.2998 32.2 17.8998 34.6 14.9998 34.6C12.0998 34.6 9.6998 32.2 9.6998 29.3V14.7H4.2998V29.4C4.2998 35.5 9.1998 40.4 15.1998 40.4C21.1998 40.4 26.0998 35.5 26.0998 29.4V26.9C27.1998 29.1 28.5998 31.5 30.0998 33.6L26.5998 49.9H32.2998L34.6998 38C36.8998 39.4 39.3998 40.2 42.3998 40.2C48.4998 40.2 53.4998 35.2 53.4998 28.8C53.4998 22.7 48.4998 17.7 42.3998 17.7ZM42.3998 34.6C40.1998 34.6 37.8998 33.6 36.0998 32.1L36.6998 29.9V29.8C37.0998 27.4 38.3998 23.4 42.4998 23.4C45.5998 23.4 48.0998 25.9 48.0998 29C47.9998 32.1 45.2998 34.6 42.3998 34.6Z" fill="#13A300"/>
</svg>
